<svg width="271" height="62" viewBox="0 0 271 62" fill="none" xmlns="http://www.w3.org/2000/svg">
<path d="M16.6233 50.7318C8.46847 50.7318 3.50239 46.3408 1.77733 40.5906L6.84796 38.2905C8.15482 42.4725 11.1867 46.0271 16.9369 46.0271C21.9553 46.0271 24.6736 43.6225 24.6736 40.1724C24.6736 37.1405 22.5303 35.3109 18.0347 34.3699L13.1732 33.2722C7.47526 32.0698 3.60694 29.2993 3.60694 23.0786C3.60694 17.1716 8.6253 12.676 16.3619 12.676C24.4122 12.676 28.4896 17.6421 29.5874 21.3013L24.6736 23.5491C23.8372 21.0922 21.6417 17.3807 15.8915 17.3807C11.3436 17.3807 8.83439 19.6808 8.83439 22.8173C8.83439 25.7969 10.664 27.2606 14.6369 28.1493L19.6552 29.247C25.7713 30.5539 30.1624 34.004 30.1624 39.7019C30.1624 46.0794 25.4577 50.7318 16.6233 50.7318ZM44.0797 50C39.7932 50 37.5454 47.909 37.5454 43.6225V28.1493H31.6383V24.0718H37.5454V15.9693H42.4592V24.0718H49.4639V28.1493H42.4592V43.2043C42.4592 44.9816 43.2433 45.7658 45.0206 45.7658H50.4572V50H44.0797ZM63.8697 50.7318C56.6558 50.7318 51.8988 45.8703 51.8988 37.1405C51.8988 28.672 56.9171 23.34 63.6606 23.34C71.3972 23.34 75.9973 29.822 75.0564 38.2905H56.8126C57.0217 44.5112 60.4718 46.6022 64.0265 46.6022C68.2084 46.6022 70.038 43.4657 70.7699 41.6361L75.2655 43.2566C73.3836 48.2227 69.2539 50.7318 63.8697 50.7318ZM70.0903 34.3699C70.038 29.7175 67.1107 27.2606 63.6606 27.2606C60.315 27.2606 57.3353 29.8743 56.9171 34.3699H70.0903ZM80.3418 60.1935V24.0718H84.7852C84.7852 25.7969 83.4783 28.3061 82.4328 29.6652H85.2034C86.1966 27.2606 88.1307 23.34 93.6196 23.34C99.6311 23.34 104.127 28.5674 104.127 37.0882C104.127 45.5567 99.6311 50.7318 93.6196 50.7318C88.4444 50.7318 86.3011 47.4385 85.2034 44.4066H82.3283C83.6874 46.5499 85.2556 49.1636 85.2556 54.6524V60.1935H80.3418ZM92.1036 46.5499C96.1287 46.5499 99.0561 44.1453 99.0561 37.0882C99.0561 30.0834 96.1287 27.522 92.1036 27.522C87.9739 27.522 84.9943 30.7107 84.9943 37.0882C84.9943 43.4657 87.9739 46.5499 92.1036 46.5499ZM109.419 50V13.4078H114.647V22.0331C114.647 26.3196 113.758 28.2015 112.242 29.9789L113.81 31.4948L130.747 13.4078H137.804L123.167 28.5152L140.418 50H133.57L119.56 32.2267L114.647 37.1927V50H109.419ZM142.651 50V45.9226V28.1493V24.0718H147.564V45.9226V50H142.651ZM142.494 19.2626V13.4078H147.721V19.2626H142.494ZM163.76 50C159.473 50 157.225 47.909 157.225 43.6225V28.1493H151.318V24.0718H157.225V15.9693H162.139V24.0718H169.144V28.1493H162.139V43.2043C162.139 44.9816 162.923 45.7658 164.701 45.7658H170.137V50H163.76Z" fill="white"/>
<path opacity="0.5" d="M185.584 28.0801V15.3154H191.182C193.899 15.3154 195.157 16.6648 195.157 18.3242C195.157 20.0383 193.972 20.9136 192.422 21.0048V21.7524C194.045 21.8254 195.577 22.6642 195.577 24.6701C195.577 26.986 193.699 28.0801 191.365 28.0801H185.584ZM187.407 26.4024H191.109C192.677 26.4024 193.644 25.6001 193.644 24.3236C193.644 23.0289 192.677 22.2813 191.109 22.2813H187.407V26.4024ZM187.407 20.6401H190.963C192.367 20.6401 193.261 19.9107 193.261 18.7436C193.261 17.5583 192.367 16.993 190.963 16.993H187.407V20.6401ZM200.353 28.0801V22.7371L195.721 15.3154H197.91L200.061 18.9077C200.718 20.0201 200.882 20.8042 200.9 21.7342H201.666C201.684 20.786 201.848 20.0018 202.468 18.8895L204.492 15.3154H206.662L202.177 22.6824V28.0801H200.353ZM185.584 50.0801V48.4936V38.9018V37.3154H187.407V38.9018V48.4936V50.0801H185.584ZM190.326 50.0801V37.3154H193.116L199.808 47.8736L200.465 47.4177C199.808 46.3783 199.608 45.6854 199.608 44.0807V37.3154H201.431V50.0801H199.17L192.04 38.8471L191.383 39.2665C191.912 40.306 192.149 41.2724 192.149 42.9683V50.0801H190.326ZM204.346 50.0801V37.3154H207.136L213.828 47.8736L214.484 47.4177C213.828 46.3783 213.627 45.6854 213.627 44.0807V37.3154H215.451V50.0801H213.19L206.06 38.8471L205.403 39.2665C205.932 40.306 206.169 41.2724 206.169 42.9683V50.0801H204.346ZM223.325 50.3354C219.952 50.3354 217.563 47.7824 217.563 43.6977C217.563 39.7771 220.462 37.0601 223.964 37.0601C227.21 37.0601 229.051 38.9565 229.708 40.8895L227.848 41.6371C227.228 39.9595 226.079 38.756 223.927 38.756C221.684 38.756 219.514 40.4336 219.514 43.6795C219.514 46.8524 221.301 48.676 223.854 48.676C226.316 48.676 227.684 46.9983 227.793 45.4665H223.38V43.7889H229.671V50.0801H227.902C227.902 49.0954 228.267 48.0742 228.614 47.363H227.757C227.41 48.3113 226.316 50.3354 223.325 50.3354ZM232.082 50.0801V37.3154H241.109V38.993H233.906V42.6401H239.231V44.2995H233.906V48.4024H241.109V50.0801H232.082ZM247.23 50.3354C244.386 50.3354 242.653 48.8036 242.052 46.7977L243.82 45.9954C244.276 47.4542 245.334 48.6942 247.34 48.6942C249.09 48.6942 250.039 47.8554 250.039 46.6518C250.039 45.5942 249.291 44.956 247.723 44.6277L246.027 44.2448C244.039 43.8254 242.69 42.8589 242.69 40.6889C242.69 38.6283 244.44 37.0601 247.139 37.0601C249.948 37.0601 251.37 38.7924 251.753 40.0689L250.039 40.853C249.747 39.996 248.981 38.7013 246.975 38.7013C245.389 38.7013 244.513 39.5036 244.513 40.5977C244.513 41.6371 245.152 42.1477 246.538 42.4577L248.288 42.8407C250.422 43.2965 251.953 44.5001 251.953 46.4877C251.953 48.7124 250.312 50.3354 247.23 50.3354ZM256.848 50.0801V38.993H252.271V37.3154H263.267V38.993H258.671V50.0801H256.848Z" fill="white"/>
</svg>

