<svg width="15" height="15" viewBox="0 0 15 15" fill="none" xmlns="http://www.w3.org/2000/svg">
<path d="M0 0V14.25H14.25V0H0ZM8.23003 10.8531L7.30835 9.94523L8.46069 8.80669C8.63221 8.63517 8.80176 8.49716 8.96934 8.39366C9.13691 8.29016 9.30154 8.21031 9.46418 8.15609C9.59036 8.11962 9.72146 8.08808 9.8575 8.06146C9.99353 8.03386 10.1237 8.01612 10.2508 8.00725V7.43748H3.29536V11.5323H1.95277V6.13629H10.2498V5.56653C10.1138 5.55766 9.97875 5.53893 9.84271 5.51231C9.70668 5.48471 9.5805 5.45415 9.4632 5.41768C9.30055 5.37234 9.14184 5.30235 8.98905 5.20772C8.83528 5.11308 8.67756 4.98395 8.51491 4.8213L7.30835 3.62855L8.23003 2.72067L12.2972 6.78787L8.23003 10.8551V10.8531Z" fill="#242424"/>
</svg>
