<svg width="831" height="519" viewBox="0 0 831 519" fill="none" xmlns="http://www.w3.org/2000/svg">
<path d="M441.582 448.788L28.3633 201.604" stroke="#787878" stroke-width="0.25" stroke-miterlimit="10"/>
<path d="M467.106 433.563L54.8125 186.256" stroke="#787878" stroke-width="0.25" stroke-miterlimit="10"/>
<path d="M493.003 418.152L415.871 371.921" stroke="#787878" stroke-width="0.25" stroke-miterlimit="10"/>
<path d="M519.083 402.927L439.793 357.004" stroke="#787878" stroke-width="0.25" stroke-miterlimit="10"/>
<path d="M544.794 387.455L466.984 340.854" stroke="#787878" stroke-width="0.25" stroke-miterlimit="10"/>
<path d="M570.998 372.352L492.695 324.703" stroke="#787878" stroke-width="0.25" stroke-miterlimit="10"/>
<path d="M597.018 357.25L519.023 310.525" stroke="#787878" stroke-width="0.25" stroke-miterlimit="10"/>
<path d="M622.728 341.901L543.809 294.622" stroke="#787878" stroke-width="0.25" stroke-miterlimit="10"/>
<path d="M648.932 326.306L571.184 279.644" stroke="#787878" stroke-width="0.25" stroke-miterlimit="10"/>
<path d="M674.272 311.45L595.723 264.232" stroke="#787878" stroke-width="0.25" stroke-miterlimit="10"/>
<path d="M700.351 295.855L623.281 248.699" stroke="#787878" stroke-width="0.25" stroke-miterlimit="10"/>
<path d="M727.111 280.691L647.883 232.672" stroke="#787878" stroke-width="0.25" stroke-miterlimit="10"/>
<path d="M751.834 265.527L674.641 217.816" stroke="#787878" stroke-width="0.25" stroke-miterlimit="10"/>
<path d="M778.346 250.302L699.734 202.283" stroke="#787878" stroke-width="0.25" stroke-miterlimit="10"/>
<path d="M803.565 235.261L725.57 187.427" stroke="#787878" stroke-width="0.25" stroke-miterlimit="10"/>
<path d="M29.2891 233.535L106.051 187.242" stroke="#787878" stroke-width="0.25" stroke-miterlimit="10"/>
<path d="M54.2578 248.823L130.033 202.345" stroke="#787878" stroke-width="0.25" stroke-miterlimit="10"/>
<path d="M81.3867 264.356L155.744 217.632" stroke="#787878" stroke-width="0.25" stroke-miterlimit="10"/>
<path d="M106.422 279.582L181.889 232.426" stroke="#787878" stroke-width="0.25" stroke-miterlimit="10"/>
<path d="M132.5 295.238L207.289 248.452" stroke="#787878" stroke-width="0.25" stroke-miterlimit="10"/>
<path d="M158.09 310.772L234.605 264.973" stroke="#787878" stroke-width="0.25" stroke-miterlimit="10"/>
<path d="M184.168 326.183L260.498 280.568" stroke="#787878" stroke-width="0.25" stroke-miterlimit="10"/>
<path d="M209.633 341.531L286.456 295.67" stroke="#787878" stroke-width="0.25" stroke-miterlimit="10"/>
<path d="M235.219 357.066L311.857 311.266" stroke="#787878" stroke-width="0.25" stroke-miterlimit="10"/>
<path d="M261.055 372.23L337.693 326.307" stroke="#787878" stroke-width="0.25" stroke-miterlimit="10"/>
<path d="M287.195 387.579L363.402 341.594" stroke="#787878" stroke-width="0.25" stroke-miterlimit="10"/>
<path d="M312.785 403.112L387.204 356.079" stroke="#787878" stroke-width="0.25" stroke-miterlimit="10"/>
<path d="M338.434 418.646L751.961 171.955" stroke="#787878" stroke-width="0.25" stroke-miterlimit="10"/>
<path d="M364.082 434.118L775.883 188.599" stroke="#787878" stroke-width="0.25" stroke-miterlimit="10"/>
<path d="M389.668 449.651L801.962 203.639" stroke="#787878" stroke-width="0.25" stroke-miterlimit="10"/>
<path d="M79.2296 171.955L1.54297 217.262L415.07 464.507L828.967 220.344L749.801 172.14" stroke="#787878" stroke-width="0.25" stroke-miterlimit="10"/>
<path d="M415.688 601.476V464.508" stroke="white" stroke-width="0.25" stroke-linecap="round" stroke-linejoin="round" stroke-dasharray="5 4 5 4 5 4"/>
<path d="M339.418 564.613V424.316" stroke="white" stroke-width="0.25" stroke-linecap="round" stroke-linejoin="round" stroke-dasharray="5 4 5 4 5 4"/>
<path d="M493.004 564.613V424.316" stroke="white" stroke-width="0.25" stroke-linecap="round" stroke-linejoin="round" stroke-dasharray="5 4 5 4 5 4"/>
<path d="M80.1562 401.632V266.637" stroke="white" stroke-width="0.25" stroke-linecap="round" stroke-linejoin="round" stroke-dasharray="5 4 5 4 5 4"/>
<path d="M2.22266 354.353V219.357" stroke="white" stroke-width="0.25" stroke-linecap="round" stroke-linejoin="round" stroke-dasharray="5 4 5 4 5 4"/>
<path d="M157.965 358.237V311.759" stroke="white" stroke-width="0.25" stroke-linecap="round" stroke-linejoin="round" stroke-dasharray="5 4 5 4 5 4"/>
<path d="M80.1567 402.126C123.164 402.126 158.028 386.229 158.028 366.62C158.028 347.011 123.164 331.114 80.1567 331.114C37.1494 331.114 2.28516 347.011 2.28516 366.62C2.28516 386.229 37.1494 402.126 80.1567 402.126Z" stroke="white" stroke-width="0.25" stroke-miterlimit="10"/>
<path d="M2.22266 366.62V457.912C2.22266 477.514 37.12 493.417 80.0942 493.417C123.068 493.417 157.966 477.514 157.966 457.912V366.62" stroke="white" stroke-width="0.25" stroke-miterlimit="10"/>
<path d="M158.028 412.297C158.028 431.899 123.131 447.803 80.1567 447.803C37.1825 447.803 2.28516 431.899 2.28516 412.297" stroke="white" stroke-width="0.25" stroke-miterlimit="10"/>
<path d="M51.6094 381.599L112.402 351.641" stroke="white" stroke-width="0.25" stroke-miterlimit="10"/>
<path d="M47.9102 352.257L110.984 381.044" stroke="white" stroke-width="0.25" stroke-miterlimit="10"/>
<path d="M751.648 401.448V265.404" stroke="white" stroke-width="0.25" stroke-linecap="round" stroke-linejoin="round" stroke-dasharray="5 4 5 4 5 4"/>
<path d="M829.027 353.614V220.036" stroke="white" stroke-width="0.25" stroke-linecap="round" stroke-linejoin="round" stroke-dasharray="5 4 5 4 5 4"/>
<path d="M674.395 361.504V314.779" stroke="white" stroke-width="0.25" stroke-linecap="round" stroke-linejoin="round" stroke-dasharray="5 4 5 4 5 4"/>
<path d="M752.391 402.126C795.398 402.126 830.263 386.229 830.263 366.62C830.263 347.011 795.398 331.114 752.391 331.114C709.384 331.114 674.52 347.011 674.52 366.62C674.52 386.229 709.384 402.126 752.391 402.126Z" stroke="white" stroke-width="0.25" stroke-miterlimit="10"/>
<path d="M830.263 366.62V457.912C830.263 477.514 795.365 493.417 752.391 493.417C709.355 493.417 674.52 477.514 674.52 457.912V366.62" stroke="white" stroke-width="0.25" stroke-miterlimit="10"/>
<path d="M674.457 412.297C674.457 431.899 709.354 447.803 752.329 447.803C795.364 447.803 830.2 431.899 830.2 412.297" stroke="white" stroke-width="0.25" stroke-miterlimit="10"/>
<path d="M780.937 381.599L720.145 351.641" stroke="white" stroke-width="0.25" stroke-miterlimit="10"/>
<path d="M784.636 352.257L721.5 381.044" stroke="white" stroke-width="0.25" stroke-miterlimit="10"/>
<path d="M386.523 299.676L797.646 53.7871" stroke="#787878" stroke-width="0.25" stroke-miterlimit="10"/>
<path d="M361.059 284.205L772.674 38.8701" stroke="#787878" stroke-width="0.25" stroke-miterlimit="10"/>
<path d="M335.594 268.794L747.209 23.6445" stroke="#787878" stroke-width="0.25" stroke-miterlimit="10"/>
<path d="M308.59 254.061L722.24 8.48047" stroke="#787878" stroke-width="0.25" stroke-miterlimit="10"/>
<path d="M283.621 238.652L696.778 -6.68262" stroke="#787878" stroke-width="0.25" stroke-miterlimit="10"/>
<path d="M258.094 223.488L671.066 -21.8467" stroke="#787878" stroke-width="0.25" stroke-miterlimit="10"/>
<path d="M231.891 207.831L645.233 -36.1475" stroke="#787878" stroke-width="0.25" stroke-miterlimit="10"/>
<path d="M206.18 192.359L620.2 -51.4346" stroke="#787878" stroke-width="0.25" stroke-miterlimit="10"/>
<path d="M180.715 177.442L595.167 -66.7217" stroke="#787878" stroke-width="0.25" stroke-miterlimit="10"/>
<path d="M155.25 161.784L570.072 -82.0098" stroke="#787878" stroke-width="0.25" stroke-miterlimit="10"/>
<path d="M129.539 147.051L545.039 -97.3584" stroke="#787878" stroke-width="0.25" stroke-miterlimit="10"/>
<path d="M104.078 131.148L519.948 -112.646" stroke="#787878" stroke-width="0.25" stroke-miterlimit="10"/>
<path d="M78.1211 115.984L493.744 -127.378" stroke="#787878" stroke-width="0.25" stroke-miterlimit="10"/>
<path d="M53.3945 100.82L468.771 -142.604" stroke="#787878" stroke-width="0.25" stroke-miterlimit="10"/>
<path d="M26.9453 85.1634L443.74 -158.014" stroke="#787878" stroke-width="0.25" stroke-miterlimit="10"/>
<path d="M31.8164 52.5547L457.243 307.197" stroke="#787878" stroke-width="0.25" stroke-miterlimit="10"/>
<path d="M57.7734 37.3906L482.46 291.293" stroke="#787878" stroke-width="0.25" stroke-miterlimit="10"/>
<path d="M83.4844 22.4736L504.287 273.911" stroke="#787878" stroke-width="0.25" stroke-miterlimit="10"/>
<path d="M109.195 7.49414L530.738 259.239" stroke="#787878" stroke-width="0.25" stroke-miterlimit="10"/>
<path d="M135.152 -7.66895L555.708 243.83" stroke="#787878" stroke-width="0.25" stroke-miterlimit="10"/>
<path d="M161.91 -22.0938L581.911 229.097" stroke="#787878" stroke-width="0.25" stroke-miterlimit="10"/>
<path d="M187.559 -37.2578L604.415 211.714" stroke="#787878" stroke-width="0.25" stroke-miterlimit="10"/>
<path d="M213.207 -52.4209L627.721 195.318" stroke="#787878" stroke-width="0.25" stroke-miterlimit="10"/>
<path d="M238.855 -67.585L657.068 182.373" stroke="#787878" stroke-width="0.25" stroke-miterlimit="10"/>
<path d="M264.508 -82.8105L681.118 166.407" stroke="#787878" stroke-width="0.25" stroke-miterlimit="10"/>
<path d="M290.094 -97.9746L708.8 152.23" stroke="#787878" stroke-width="0.25" stroke-miterlimit="10"/>
<path d="M315.742 -113.139L733.277 136.326" stroke="#787878" stroke-width="0.25" stroke-miterlimit="10"/>
<path d="M342.379 -127.624L756.276 119.436" stroke="#787878" stroke-width="0.25" stroke-miterlimit="10"/>
<path d="M368.09 -142.85L780.754 103.718" stroke="#787878" stroke-width="0.25" stroke-miterlimit="10"/>
<path d="M393.801 -158.014L806.465 88.8002" stroke="#787878" stroke-width="0.25" stroke-miterlimit="10"/>
<path d="M828.781 72.4041V127.45L415.254 372.6L1.72656 125.354V70.3083L419.2 -173.115L828.781 72.4041Z" stroke="white" stroke-width="0.25" stroke-miterlimit="10"/>
<path d="M1.72656 70.3086L415.254 317.554V372.6" stroke="white" stroke-width="0.25" stroke-miterlimit="10"/>
<path d="M693.816 33.3438L417.042 196.695L137 30.0151L415.377 -135L693.816 33.3438Z" fill="#1E1E1E"/>
<path d="M693.816 33.3438L417.042 196.695L137 30.0151L415.377 -135L693.816 33.3438Z" fill="#242424"/>
<path d="M693.816 33.3438L417.042 196.695L137 30.0151L415.377 -135L693.816 33.3438Z" stroke="#F7F5F5" stroke-width="0.25" stroke-miterlimit="10"/>
<path d="M417.042 196.695V251.68L137 85.0001V30.0156L417.042 196.695Z" fill="#1E1E1E"/>
<path d="M417.042 196.695V251.68L137 85.0001V30.0156L417.042 196.695Z" fill="#242424"/>
<path d="M417.042 196.695V251.68L137 85.0001V30.0156L417.042 196.695Z" stroke="#F7F5F5" stroke-width="0.25" stroke-miterlimit="10"/>
<path d="M693.817 33.3438V88.3282L417.043 251.679V196.695L693.817 33.3438Z" fill="#1E1E1E"/>
<path d="M693.817 33.3438V88.3282L417.043 251.679V196.695L693.817 33.3438Z" fill="#242424"/>
<path d="M693.817 33.3438V88.3282L417.043 251.679V196.695L693.817 33.3438Z" stroke="#F7F5F5" stroke-width="0.25" stroke-miterlimit="10"/>
<path d="M693.941 -81.8857L417.167 81.4035L137.125 -85.2144L415.502 -250.229L693.941 -81.8857Z" fill="#1E1E1E"/>
<path d="M693.941 -81.8857L417.167 81.4035L137.125 -85.2144L415.502 -250.229L693.941 -81.8857Z" fill="#242424"/>
<path d="M693.941 -81.8857L417.167 81.4035L137.125 -85.2144L415.502 -250.229L693.941 -81.8857Z" stroke="#F7F5F5" stroke-width="0.25" stroke-miterlimit="10"/>
<path d="M417.167 81.403V136.449L137.125 -30.2303V-85.2148L417.167 81.403Z" fill="#1E1E1E"/>
<path d="M417.167 81.403V136.449L137.125 -30.2303V-85.2148L417.167 81.403Z" fill="#242424"/>
<path d="M417.167 81.403V136.449L137.125 -30.2303V-85.2148L417.167 81.403Z" stroke="#F7F5F5" stroke-width="0.25" stroke-miterlimit="10"/>
<path d="M693.942 -81.8857V-26.9012L417.168 136.45V81.4035L693.942 -81.8857Z" fill="#1E1E1E"/>
<path d="M693.942 -81.8857V-26.9012L417.168 136.45V81.4035L693.942 -81.8857Z" fill="#242424"/>
<path d="M693.942 -81.8857V-26.9012L417.168 136.45V81.4035L693.942 -81.8857Z" stroke="#F7F5F5" stroke-width="0.25" stroke-miterlimit="10"/>
<path d="M415.254 372.599V317.553L828.411 72.8965L828.781 127.45" fill="white"/>
<path d="M415.254 372.599V317.553L828.411 72.8965L828.781 127.45" fill="#242424"/>
<path d="M415.254 372.599V317.553L828.411 72.8965L828.781 127.45" fill="#242424"/>
<path d="M415.254 372.599V317.553L828.411 72.8965L828.781 127.45" stroke="white" stroke-width="0.25" stroke-miterlimit="10"/>
</svg>
