<svg width="393" height="91" viewBox="0 0 393 91" fill="none" xmlns="http://www.w3.org/2000/svg">
<path d="M24.1557 74.0635C12.3057 74.0635 5.0894 67.6827 2.58268 59.327L9.95093 55.9847C11.85 62.0616 16.2557 67.2269 24.6114 67.2269C31.9037 67.2269 35.8537 63.7327 35.8537 58.7193C35.8537 54.3135 32.7393 51.6549 26.2066 50.2876L19.1422 48.6924C10.8625 46.9453 5.24133 42.9193 5.24133 33.8799C5.24133 25.2963 12.5336 18.7637 23.7759 18.7637C35.4739 18.7637 41.3989 25.98 42.9941 31.2973L35.8537 34.5636C34.6383 30.9934 31.448 25.6002 23.0922 25.6002C16.4836 25.6002 12.8375 28.9425 12.8375 33.5001C12.8375 37.8299 15.4961 39.9569 21.2692 41.2482L28.5614 42.8434C37.4489 44.7424 43.8296 49.7559 43.8296 58.0356C43.8296 67.3029 36.9931 74.0635 24.1557 74.0635ZM64.0531 73C57.8243 73 54.558 69.9615 54.558 63.7327V41.2482H45.9744V35.3232H54.558V23.5492H61.6983V35.3232H71.8772V41.2482H61.6983V63.125C61.6983 65.7077 62.8378 66.8471 65.4204 66.8471H73.3204V73H64.0531ZM92.8104 74.0635C82.3278 74.0635 75.4153 66.9991 75.4153 54.3135C75.4153 42.0078 82.7076 34.2598 92.5066 34.2598C103.749 34.2598 110.433 43.679 109.066 55.9847H82.5556C82.8595 65.0241 87.8729 68.0625 93.0383 68.0625C99.1152 68.0625 101.774 63.5048 102.837 60.8462L109.37 63.201C106.635 70.4173 100.634 74.0635 92.8104 74.0635ZM101.85 50.2876C101.774 43.527 97.52 39.9569 92.5066 39.9569C87.6451 39.9569 83.3153 43.7549 82.7076 50.2876H101.85ZM116.747 87.8124V35.3232H123.203C123.203 37.8299 121.304 41.4761 119.785 43.4511H123.811C125.254 39.9569 128.065 34.2598 136.041 34.2598C144.776 34.2598 151.309 41.8559 151.309 54.2376C151.309 66.5433 144.776 74.0635 136.041 74.0635C128.521 74.0635 125.406 69.2779 123.811 64.8721H119.633C121.608 67.9866 123.887 71.7846 123.887 79.7606V87.8124H116.747ZM133.838 67.9866C139.687 67.9866 143.941 64.4923 143.941 54.2376C143.941 44.0588 139.687 40.3367 133.838 40.3367C127.837 40.3367 123.507 44.9703 123.507 54.2376C123.507 63.5048 127.837 67.9866 133.838 67.9866ZM158.999 73V19.8271H166.595V32.3607C166.595 38.5895 165.304 41.3242 163.101 43.9068L165.38 46.1097L189.992 19.8271H200.246L178.977 41.7799L204.044 73H194.093L173.736 47.1732L166.595 54.3895V73H158.999ZM207.289 73V67.075V41.2482V35.3232H214.429V67.075V73H207.289ZM207.061 28.3348V19.8271H214.657V28.3348H207.061ZM237.963 73C231.734 73 228.468 69.9615 228.468 63.7327V41.2482H219.884V35.3232H228.468V23.5492H235.608V35.3232H245.787V41.2482H235.608V63.125C235.608 65.7077 236.748 66.8471 239.33 66.8471H247.23V73H237.963Z" fill="white"/>
<path opacity="0.5" d="M269.675 41.1006V22.5519H277.809C281.758 22.5519 283.586 24.5128 283.586 26.9241C283.586 29.4149 281.864 30.6868 279.611 30.8193V31.9057C281.97 32.0117 284.196 33.2306 284.196 36.1454C284.196 39.5107 281.466 41.1006 278.074 41.1006H269.675ZM272.324 38.6628H277.703C279.982 38.6628 281.387 37.4968 281.387 35.642C281.387 33.7606 279.982 32.6742 277.703 32.6742H272.324V38.6628ZM272.324 30.2894H277.491C279.532 30.2894 280.83 29.2294 280.83 27.5336C280.83 25.8112 279.532 24.9897 277.491 24.9897H272.324V30.2894ZM291.136 41.1006V33.3366L284.405 22.5519H287.585L290.712 27.772C291.666 29.3884 291.904 30.5278 291.931 31.8792H293.044C293.07 30.5013 293.309 29.3619 294.21 27.7455L297.151 22.5519H300.304L293.786 33.2571V41.1006H291.136ZM269.675 73.1006V70.7952V56.8572V54.5519H272.324V56.8572V70.7952V73.1006H269.675ZM276.565 73.1006V54.5519H280.619L290.344 69.8943L291.298 69.2319C290.344 67.7215 290.053 66.7145 290.053 64.3827V54.5519H292.702V73.1006H289.417L279.056 56.7777L278.102 57.3872C278.87 58.8976 279.215 60.302 279.215 62.7663V73.1006H276.565ZM296.938 73.1006V54.5519H300.992L310.717 69.8943L311.671 69.2319C310.717 67.7215 310.425 66.7145 310.425 64.3827V54.5519H313.075V73.1006H309.789L299.428 56.7777L298.474 57.3872C299.243 58.8976 299.587 60.302 299.587 62.7663V73.1006H296.938ZM324.518 73.4716C319.615 73.4716 316.144 69.7618 316.144 63.8262C316.144 58.1292 320.357 54.1809 325.445 54.1809C330.162 54.1809 332.838 56.9367 333.792 59.7455L331.089 60.832C330.188 58.3941 328.519 56.6453 325.392 56.6453C322.133 56.6453 318.979 59.0831 318.979 63.7997C318.979 68.4104 321.576 71.0602 325.286 71.0602C328.863 71.0602 330.851 68.6224 331.01 66.3966H324.597V63.9587H333.739V73.1006H331.169C331.169 71.6697 331.699 70.1858 332.202 69.1524H330.957C330.453 70.5303 328.863 73.4716 324.518 73.4716ZM337.243 73.1006V54.5519H350.359V56.9897H339.892V62.2894H347.63V64.7007H339.892V70.6628H350.359V73.1006H337.243ZM359.255 73.4716C355.121 73.4716 352.604 71.2457 351.729 68.3309L354.299 67.165C354.962 69.2849 356.499 71.0867 359.414 71.0867C361.957 71.0867 363.335 69.8678 363.335 68.1189C363.335 66.582 362.249 65.6546 359.97 65.1776L357.506 64.6212C354.617 64.0117 352.657 62.6073 352.657 59.4541C352.657 56.4598 355.2 54.1809 359.122 54.1809C363.203 54.1809 365.27 56.6983 365.826 58.5531L363.335 59.6925C362.911 58.4471 361.798 56.5658 358.884 56.5658C356.578 56.5658 355.306 57.7317 355.306 59.3216C355.306 60.832 356.234 61.5739 358.248 62.0244L360.791 62.5808C363.892 63.2433 366.118 64.9922 366.118 67.8805C366.118 71.1132 363.733 73.4716 359.255 73.4716ZM373.23 73.1006V56.9897H366.579V54.5519H382.557V56.9897H375.879V73.1006H373.23Z" fill="white"/>
</svg>
