<svg width="120" height="43" viewBox="0 0 120 43" fill="none" xmlns="http://www.w3.org/2000/svg">
<path d="M11.5291 35.5076C5.87329 35.5076 2.42908 32.4622 1.23267 28.4741L4.74939 26.8789C5.65577 29.7793 7.75855 32.2446 11.7466 32.2446C15.2271 32.2446 17.1123 30.5769 17.1123 28.1841C17.1123 26.0813 15.6259 24.8124 12.5079 24.1598L9.13624 23.3984C5.18445 22.5646 2.50159 20.6431 2.50159 16.3287C2.50159 12.2319 5.98206 9.114 11.3478 9.114C16.931 9.114 19.7589 12.5582 20.5203 15.0961L17.1123 16.655C16.5322 14.951 15.0095 12.3769 11.0215 12.3769C7.86731 12.3769 6.12708 13.9722 6.12708 16.1474C6.12708 18.214 7.396 19.2291 10.1514 19.8454L13.6318 20.6068C17.8737 21.5132 20.9191 23.906 20.9191 27.8578C20.9191 32.2809 17.6561 35.5076 11.5291 35.5076ZM30.5714 35C27.5985 35 26.0395 33.5498 26.0395 30.5769V19.8454H21.9427V17.0176H26.0395V11.3981H29.4475V17.0176H34.3056V19.8454H29.4475V30.2869C29.4475 31.5195 29.9913 32.0634 31.224 32.0634H34.9945V35H30.5714ZM44.2967 35.5076C39.2935 35.5076 35.9943 32.1359 35.9943 26.0813C35.9943 20.208 39.4748 16.51 44.1517 16.51C49.5174 16.51 52.7078 21.0056 52.0552 26.8789H39.4023C39.5473 31.1932 41.9401 32.6434 44.4055 32.6434C47.3059 32.6434 48.5748 30.4681 49.0823 29.1992L52.2003 30.3231C50.8951 33.7673 48.0309 35.5076 44.2967 35.5076ZM48.611 24.1598C48.5748 20.9331 46.5445 19.2291 44.1517 19.2291C41.8314 19.2291 39.7648 21.0419 39.4748 24.1598H48.611ZM55.721 42.0697V17.0176H58.8026C58.8026 18.214 57.8963 19.9542 57.1712 20.8968H59.0927C59.7815 19.2291 61.1229 16.51 64.9297 16.51C69.099 16.51 72.2169 20.1355 72.2169 26.045C72.2169 31.9183 69.099 35.5076 64.9297 35.5076C61.3405 35.5076 59.854 33.2235 59.0927 31.1207H57.0986C58.0413 32.6072 59.1289 34.4199 59.1289 38.2267V42.0697H55.721ZM63.8783 32.6072C66.6699 32.6072 68.7002 30.9395 68.7002 26.045C68.7002 21.1869 66.6699 19.4104 63.8783 19.4104C61.0142 19.4104 58.9476 21.6219 58.9476 26.045C58.9476 30.4681 61.0142 32.6072 63.8783 32.6072ZM75.8875 35V9.62156H79.513V15.6036C79.513 18.5765 78.8966 19.8817 77.8452 21.1144L78.9329 22.1658L90.6795 9.62156H95.5739L85.4225 20.0992L97.3866 35H92.6372L82.9209 22.6733L79.513 26.1175V35H75.8875ZM98.9351 35V32.1721V19.8454V17.0176H102.343V32.1721V35H98.9351ZM98.8263 13.6821V9.62156H102.452V13.6821H98.8263ZM113.575 35C110.602 35 109.043 33.5498 109.043 30.5769V19.8454H104.947V17.0176H109.043V11.3981H112.451V17.0176H117.31V19.8454H112.451V30.2869C112.451 31.5195 112.995 32.0634 114.228 32.0634H117.998V35H113.575Z" fill="white"/>
</svg>
